<?xml version="1.0" standalone="no"?>
<!DOCTYPE svg PUBLIC "-//W3C//DTD SVG 20010904//EN"
 "http://www.w3.org/TR/2001/REC-SVG-20010904/DTD/svg10.dtd">
<svg version="1.0" xmlns="http://www.w3.org/2000/svg"
 width="1339.000000pt" height="1013.000000pt" viewBox="0 0 1339.000000 1013.000000"
 preserveAspectRatio="xMidYMid meet">

<g transform="translate(0.000000,1013.000000) scale(0.100000,-0.100000)"
fill="#000000" stroke="none">
<path d="M3 5973 c3 -1988 -1 -1859 63 -2123 188 -771 849 -1371 1719 -1560
239 -53 363 -64 675 -64 363 0 572 26 854 109 806 235 1402 841 1555 1582 46
222 44 172 48 2061 l4 1802 -841 0 -840 0 0 -1714 c0 -1856 2 -1789 -53 -1926
-40 -99 -87 -169 -167 -251 -127 -128 -272 -197 -463 -218 -67 -8 -125 -8
-185 -1 -186 21 -296 73 -428 205 -77 76 -98 105 -137 185 -90 182 -82 -9 -85
1968 l-2 1752 -860 0 -860 0 3 -1807z"/>
<path d="M6615 7768 c-2 -7 -394 -1172 -871 -2588 -476 -1416 -895 -2660 -930
-2765 -35 -104 -64 -191 -64 -192 0 -2 415 -2 922 -1 l922 3 923 2775 c507
1526 923 2776 923 2778 0 1 -410 2 -910 2 -720 0 -912 -3 -915 -12z"/>
<path d="M10655 7769 c-581 -28 -1109 -227 -1543 -579 -188 -153 -308 -277
-447 -465 -282 -380 -441 -768 -516 -1265 -22 -140 -24 -188 -24 -485 0 -293
3 -346 23 -474 140 -887 646 -1582 1436 -1971 303 -149 591 -234 966 -286 181
-24 596 -30 750 -10 673 89 1256 416 1691 949 86 104 246 334 238 341 -2 2
-206 97 -454 211 -247 115 -531 246 -629 291 l-179 83 -81 -82 c-244 -247
-472 -341 -826 -340 -293 0 -526 71 -769 233 -184 124 -355 314 -446 496 -37
74 -85 194 -85 211 0 1 812 3 1804 3 l1803 0 6 68 c13 128 7 612 -8 752 -69
642 -318 1190 -731 1605 -507 510 -1179 753 -1979 714z m489 -1433 c319 -83
573 -322 645 -607 10 -41 21 -100 25 -131 l6 -58 -1040 0 c-572 0 -1040 2
-1040 5 0 3 14 49 31 102 116 365 362 598 721 683 135 32 213 39 388 35 138
-3 181 -7 264 -29z"/>
<path d="M3253 1800 c-125 -26 -190 -120 -163 -237 22 -100 102 -148 237 -141
142 7 205 60 211 179 4 57 0 74 -19 109 -41 72 -159 112 -266 90z"/>
<path d="M8733 1800 c-122 -25 -187 -115 -168 -230 16 -97 84 -143 215 -148
78 -3 90 -1 140 25 69 37 100 85 100 161 0 88 -35 145 -110 175 -47 20 -126
27 -177 17z"/>
<path d="M10070 1370 c0 -148 -2 -270 -5 -270 -3 0 -28 16 -56 35 -140 96
-360 101 -512 12 -105 -62 -205 -208 -243 -357 -23 -86 -23 -271 0 -364 34
-141 134 -286 243 -353 159 -97 404 -80 554 38 20 16 40 29 43 29 3 0 6 -18 6
-39 0 -74 -8 -71 191 -71 l179 0 0 805 0 805 -200 0 -200 0 0 -270z m-110
-510 c80 -40 114 -116 115 -251 0 -87 -3 -101 -30 -154 -42 -82 -101 -119
-188 -119 -144 1 -227 101 -227 274 0 140 58 239 155 265 58 16 125 10 175
-15z"/>
<path d="M12980 1370 c0 -148 -3 -270 -6 -270 -3 0 -20 11 -37 24 -147 110
-380 117 -537 16 -109 -70 -205 -216 -235 -356 -19 -88 -19 -260 0 -347 31
-148 130 -294 246 -364 163 -98 419 -80 553 37 18 17 36 30 40 30 3 0 6 -18 6
-39 0 -74 -8 -71 191 -71 l179 0 0 805 0 805 -200 0 -200 0 0 -270z m-113
-507 c78 -36 123 -130 123 -253 0 -173 -83 -273 -227 -274 -87 0 -146 37 -188
119 -28 54 -30 67 -30 159 1 117 22 176 83 226 61 50 162 60 239 23z"/>
<path d="M0 1057 c0 -469 1 -509 20 -581 43 -168 149 -300 301 -375 112 -56
172 -71 309 -78 153 -8 252 11 379 73 152 75 254 193 307 354 16 50 19 107 22
583 l3 527 -210 0 -211 0 0 -483 c0 -544 0 -543 -72 -615 -54 -55 -110 -75
-192 -70 -87 5 -147 43 -190 118 l-31 55 -3 498 -3 497 -215 0 -214 0 0 -503z"/>
<path d="M2275 1196 c-59 -19 -124 -54 -172 -92 l-42 -34 -7 60 -7 60 -183 0
-184 0 0 -580 0 -580 200 0 200 0 0 366 c0 320 2 370 17 401 51 108 228 120
289 19 18 -29 19 -59 22 -408 l3 -378 200 0 200 0 -3 427 c-4 410 -5 431 -26
495 -42 125 -123 210 -235 243 -61 18 -216 19 -272 1z"/>
<path d="M5504 1195 c-184 -50 -326 -183 -391 -365 -35 -98 -43 -270 -19 -374
35 -149 145 -295 272 -363 115 -61 193 -78 349 -77 126 0 148 3 220 28 79 27
179 78 222 113 l21 18 -90 125 c-49 69 -92 125 -96 125 -4 0 -32 -13 -62 -30
-46 -24 -70 -29 -146 -33 -130 -6 -193 14 -261 82 -91 90 -107 86 322 86 l375
0 0 103 c0 183 -48 307 -164 423 -75 74 -143 114 -237 139 -68 19 -247 18
-315 0z m228 -315 c63 -18 128 -89 128 -140 0 -6 -69 -10 -200 -10 -133 0
-200 4 -200 10 0 41 80 125 128 136 15 3 32 7 37 9 21 7 71 4 107 -5z"/>
<path d="M7027 1186 c-66 -28 -120 -66 -160 -113 -16 -18 -33 -33 -38 -33 -5
0 -9 27 -9 59 0 97 13 91 -196 91 l-184 0 0 -580 0 -580 199 0 200 0 3 313 c3
311 3 312 28 355 47 82 137 109 256 77 36 -10 66 -16 68 -14 9 10 106 432 101
437 -3 4 -52 8 -108 10 -90 2 -109 0 -160 -22z"/>
<path d="M7705 1191 c-228 -66 -348 -235 -301 -420 42 -165 148 -238 464 -322
45 -11 93 -30 107 -41 35 -27 33 -70 -2 -98 -25 -19 -37 -21 -98 -17 -93 7
-158 28 -234 77 l-62 40 -112 -96 c-62 -54 -113 -101 -115 -105 -5 -12 96 -87
159 -120 191 -96 467 -105 644 -20 222 105 303 365 163 517 -53 58 -164 112
-338 165 -152 46 -188 64 -196 96 -17 65 28 98 124 91 62 -4 170 -49 231 -95
l35 -27 40 46 c23 25 69 77 103 116 l63 70 -63 40 c-80 52 -142 79 -242 103
-105 25 -284 25 -370 0z"/>
<path d="M11038 1191 c-152 -50 -268 -173 -325 -345 -24 -74 -27 -95 -27 -231
0 -136 3 -157 27 -231 57 -172 175 -298 327 -350 40 -13 81 -18 150 -18 112 1
180 23 262 84 28 22 55 37 60 34 4 -3 8 -27 8 -55 l0 -49 200 0 200 0 0 580 0
580 -200 0 -200 0 0 -61 0 -62 -46 43 c-25 23 -71 54 -102 68 -77 36 -246 42
-334 13z m357 -326 c83 -34 130 -129 129 -262 -2 -133 -56 -220 -158 -253 -94
-30 -207 13 -253 96 -46 82 -47 239 -3 329 47 97 172 137 285 90z"/>
<path d="M3110 610 l0 -580 200 0 200 0 0 580 0 580 -200 0 -200 0 0 -580z"/>
<path d="M3710 1183 c1 -5 108 -264 238 -578 l238 -570 162 0 163 0 245 560
c134 308 247 568 250 577 5 17 -9 18 -215 18 l-219 0 -15 -47 c-135 -453 -191
-633 -197 -633 -3 0 -52 152 -107 338 l-100 337 -222 3 c-121 1 -221 -1 -221
-5z"/>
<path d="M8590 610 l0 -580 200 0 200 0 0 580 0 580 -200 0 -200 0 0 -580z"/>
</g>
</svg>
