<?xml version="1.0" standalone="no"?>
<!DOCTYPE svg PUBLIC "-//W3C//DTD SVG 20010904//EN"
 "http://www.w3.org/TR/2001/REC-SVG-20010904/DTD/svg10.dtd">
<svg version="1.0" xmlns="http://www.w3.org/2000/svg"
 width="32.000000pt" height="32.000000pt" viewBox="0 0 32.000000 32.000000"
 preserveAspectRatio="xMidYMid meet">

<g transform="translate(0.000000,32.000000) scale(0.100000,-0.100000)"
fill="#000000" stroke="none">
<path d="M50 205 l-44 -45 47 -47 47 -48 27 27 c22 23 24 29 13 42 -7 9 -19
16 -26 16 -20 0 -17 24 6 45 19 17 19 19 4 37 -10 10 -20 18 -23 18 -4 0 -27
-20 -51 -45z"/>
<path d="M200 235 c-9 -11 -8 -19 4 -37 20 -28 20 -57 1 -85 -13 -18 -13 -22
1 -34 13 -11 22 -5 62 34 l46 47 -44 45 c-49 50 -52 51 -70 30z"/>
</g>
</svg>
