<svg xmlns="http://www.w3.org/2000/svg" version="1.1" xmlns:xlink="http://www.w3.org/1999/xlink" xmlns:svgjs="http://svgjs.dev/svgjs" width="1000" height="1000" viewBox="0 0 1000 1000"><rect width="1000" height="1000" fill="#26251d"></rect><g transform="matrix(0.7,0,0,0.7,150.00077059784894,106.25)"><svg viewBox="0 0 320 360" data-background-color="#26251d" preserveAspectRatio="xMidYMid meet" height="1125" width="1000" xmlns="http://www.w3.org/2000/svg" xmlns:xlink="http://www.w3.org/1999/xlink"><g id="tight-bounds" transform="matrix(1,0,0,1,0.00010353528136874957,0)"><svg viewBox="0 0 320 360" height="360" width="320"><g><svg></svg></g><g><svg viewBox="0 0 320 360" height="360" width="320"><g><path xmlns="http://www.w3.org/2000/svg" d="M307.925 179.999l6.575-11.387c11.322-19.607 4.604-44.679-15.003-56.001l-11.387-6.575v-13.151c0-22.639-18.354-40.994-40.994-40.994h-13.151l-6.575-11.387c-11.322-19.607-36.393-26.325-56.001-15.003l-11.39 6.572-11.387-6.576c-19.607-11.318-44.679-4.6-56.001 15.007l-6.575 11.387h-13.151c-22.639 0-40.994 18.354-40.994 40.994v13.151l-11.387 6.575c-19.607 11.322-26.325 36.393-15.003 56.001l6.572 11.387-6.576 11.387c-11.318 19.607-4.6 44.679 15.007 56l11.387 6.576v13.15c0 22.639 18.354 40.994 40.994 40.994h13.151l6.575 11.387c11.322 19.607 36.393 26.325 56.001 15.003l11.387-6.571 11.387 6.575c19.607 11.322 44.679 4.604 56-15.003l6.576-11.387h13.15c22.639 0 40.994-18.354 40.994-40.994v-13.151l11.387-6.575c19.607-11.322 26.325-36.393 15.003-56.001zM297.702 115.716c8.655 4.996 14.842 13.062 17.428 22.713 2.586 9.65 1.261 19.734-3.735 28.384l-5.538 9.596-17.747-30.74v-35.494zM251.155 271.155l-57.791 33.365h-66.731l-57.791-33.365-33.365-57.791v-66.731l33.365-57.791 57.791-33.365h66.731l57.791 33.365 33.365 57.791v66.731zM284.517 220.539v31.351l-27.151 15.676zM247.566 277.366l-15.676 27.151h-31.351zM187.15 308.106l-27.151 15.676-27.151-15.676zM119.459 304.517h-31.352l-15.676-27.151zM62.632 267.566l-27.151-15.676v-31.351zM31.891 207.15l-15.675-27.151 15.675-27.151zM35.481 139.459v-31.352l27.151-15.676zM72.431 82.632l15.676-27.151h31.352zM132.848 51.891l27.151-15.675 27.151 15.675zM200.539 55.481h31.351l15.676 27.151zM257.366 92.431l27.151 15.676v31.352zM288.106 152.848l15.676 27.151-15.676 27.151zM247.112 55.481c9.992 0 19.384 3.889 26.452 10.956 7.063 7.063 10.956 16.46 10.957 26.452v11.079l-30.741-17.747-17.747-30.74zM173.18 28.606c8.655-4.996 18.735-6.322 28.385-3.735 9.65 2.586 17.716 8.777 22.712 17.428l5.538 9.596h-35.494l-30.741-17.747zM95.716 42.295c4.996-8.655 13.062-14.842 22.713-17.428 9.65-2.586 19.734-1.261 28.384 3.736l9.596 5.537-30.74 17.747h-35.494zM35.481 92.885c0-9.992 3.889-19.384 10.956-26.452 7.063-7.063 16.46-10.956 26.452-10.956h11.079l-17.747 30.74-30.74 17.747zM8.606 166.817c-4.996-8.655-6.322-18.735-3.735-28.385 2.586-9.65 8.777-17.716 17.428-22.712l9.596-5.538v35.495l-17.747 30.74zM22.295 244.281c-8.655-4.996-14.842-13.062-17.428-22.712-2.586-9.65-1.261-19.734 3.736-28.385l5.537-9.596 17.747 30.74v35.495zM72.885 304.517c-9.992 0-19.384-3.889-26.452-10.957-7.063-7.063-10.956-16.46-10.956-26.451v-11.08l30.74 17.747 17.747 30.741zM146.817 331.391c-8.655 4.996-18.735 6.322-28.385 3.735-9.65-2.586-17.716-8.777-22.712-17.428l-5.538-9.596h35.495l30.74 17.747zM224.281 317.702c-4.996 8.655-13.062 14.842-22.712 17.428-9.65 2.586-19.734 1.261-28.385-3.735l-9.596-5.538 30.74-17.747h35.495zM284.517 267.112c0 9.992-3.889 19.384-10.957 26.452-7.063 7.063-16.46 10.956-26.451 10.957h-11.08l17.747-30.741 30.741-17.747zM315.13 221.565c-2.586 9.65-8.777 17.716-17.428 22.712l-9.596 5.538v-35.494l17.747-30.741 5.538 9.596c4.996 8.658 6.326 18.739 3.739 28.389z" fill="#ffffff" fill-rule="nonzero" stroke="none" stroke-width="1" stroke-linecap="butt" stroke-linejoin="miter" stroke-miterlimit="10" stroke-dasharray="" stroke-dashoffset="0" font-family="none" font-weight="none" font-size="none" text-anchor="none" style="mix-blend-mode: normal" data-fill-palette-color="tertiary"></path></g><g transform="matrix(1,0,0,1,105.2101893470926,90)"><svg viewBox="0 0 109.57962130581481 180" height="180" width="109.57962130581481"><g><svg viewBox="0 0 192.95999999999998 316.96404482971974" height="180" width="109.57962130581481"><g><rect width="192.95999999999998" height="10.967233699666808" x="0" y="155.67324461165967" fill="#fbfbf8" opacity="1" stroke-width="0" stroke="transparent" fill-opacity="1" class="rect-o-0" data-fill-palette-color="secondary" rx="1%" id="o-0" data-palette-color="#fbfbf8"></rect></g><g transform="matrix(1,0,0,1,0.47999999999998977,195.3505141743286)"><svg viewBox="0 0 192 121.61353065539112" height="121.61353065539112" width="192"><g id="textblocktransform"><svg viewBox="0 0 192 121.61353065539112" height="121.61353065539112" width="192" id="textblock"><g><svg viewBox="0 0 192 121.61353065539112" height="121.61353065539112" width="192"><g transform="matrix(1,0,0,1,0,0)"><svg width="192" viewBox="1.7799999713897705 -36.060001373291016 57.7400016784668 36.56999969482422" height="121.61353065539112" data-palette-color="#ffffff"><path d="M10.23 0L1.78 0 1.78-1.73 4.81-1.86 13.43-13.5 5.22-24.56 2.27-24.68 2.27-26.42 10.62-26.42 10.62-24.68 7.69-24.61 14.7-15.06 21.68-24.63 18.68-24.68 18.68-26.42 27-26.42 27-24.68 24.02-24.56 15.97-13.53 24.63-1.86 27.64-1.73 27.64 0 19.09 0 19.09-1.73 22.17-1.78 14.67-11.94 7.23-1.78 10.23-1.73 10.23 0ZM47.8 0.51L47.8 0.51Q42.92 0.51 39.39-1.77 35.86-4.05 33.96-8.13 32.05-12.21 32.05-17.55L32.05-17.55 32.05-18.41Q32.05-23.63 34.03-27.61 36.01-31.59 39.45-33.83 42.89-36.06 47.26-36.06L47.26-36.06Q51.12-36.06 53.81-35.06 56.49-34.06 58.66-32.37L58.66-32.37 58.66-25.98 56.74-25.98 56.61-31.37Q54.95-32.64 52.82-33.39 50.68-34.13 47.39-34.13L47.39-34.13Q43.63-34.13 40.65-32.14 37.67-30.15 35.94-26.62 34.2-23.1 34.2-18.46L34.2-18.46 34.2-17.55Q34.2-12.77 35.8-9.13 37.4-5.49 40.44-3.45 43.48-1.42 47.75-1.42L47.75-1.42Q50.83-1.42 53.24-2.12 55.66-2.83 57.39-3.78L57.39-3.78 57.39-13.67 49.9-13.75 49.9-15.58 59.52-15.58 59.52-2.86Q57.44-1.49 54.61-0.49 51.78 0.51 47.8 0.51Z" opacity="1" transform="matrix(1,0,0,1,0,0)" fill="#ffffff" class="undefined-text-0" data-fill-palette-color="primary" id="text-0"></path></svg></g></svg></g></svg></g></svg></g><g transform="matrix(1,0,0,1,37.15199999999999,0)"><svg viewBox="0 0 118.656 126.96320874865756" height="126.96320874865756" width="118.656"><g><svg xmlns="http://www.w3.org/2000/svg" xmlns:xlink="http://www.w3.org/1999/xlink" version="1.1" x="8" y="0" viewBox="18.940589904785156 11.599998474121094 62.096580505371094 76.80000305175781" enable-background="new 0 0 100 100" xml:space="preserve" height="126.96320874865756" width="102.656" class="icon-icon-0" data-fill-palette-color="accent" id="icon-0"><path d="M50 50" fill="#482778" data-fill-palette-color="accent"></path><path d="M50 50" fill="#482778" data-fill-palette-color="accent"></path><path d="M79.2 11.7L68.1 19c0 0 6.5 19.6-10.9 29.6-4.1-11.8-7.9-23.6-21.3-37l-9 9.7c6.1 5.9 10.2 11.5 13.2 16.8-32 19.2-18.2 50.2-18.2 50.2L33 81c0 0-13.1-22.4 9-39.1 7.5 15.3 7.7 29.3 24.8 46.5l9.7-6.7C66.5 71.6 62.2 62.3 58.8 53 90.1 35.2 79.2 11.7 79.2 11.7z" fill="#482778" data-fill-palette-color="accent"></path></svg></g></svg></g><g></g></svg></g></svg></g></svg></g><defs></defs></svg><rect width="320" height="360" fill="none" stroke="none" visibility="hidden"></rect></g></svg></g></svg>